#!OML:ASF G:\JayActor3\Patient Classification 1\Patient 1\Session 6\male.ASF
:FULLY-SPECIFIED
:DEGREES
1264
root 8.38098 12.0811 -3.87237 32.4876 -25.2263 7.67187
lowerback 52.9261 -1.70574 3.83418
upperback 9.63864 -0.139364 1.29734
thorax -10.1054 -0.256558 -0.246549
lowerneck -9.45651 -1.48519 -0.754695
upperneck 19.8766 -0.587329 -6.74937
head 7.66076 -0.938456 -2.14509
rclavicle 3.18055e-015 -7.23079e-015
rhumerus -9.44985 -5.92423 -77.1324
rradius 138.115
rwrist 23.6181
rhand 17.7213 -19.0841
rfingers 7.12502
rthumb 42.4067 -43.5364
lclavicle 3.18055e-015 -7.23079e-015
lhumerus -32.6088 19.256 75.6804
lradius 138.249
lwrist 4.42788
lhand 0.635512 35.1911
lfingers 7.12502
lthumb 26.1989 63.403
rfemur -96.9155 -23.9742 21.5209
rtibia 107.866
rfoot -41.0097 -22.6701
rtoes -10.3398
lfemur -107.347 8.41135 -39.1991
ltibia 90.805
lfoot -14.7109 -11.0546
ltoes 9.3206
1265
root 8.38147 12.0748 -3.86919 32.5147 -25.158 7.70317
lowerback 52.9811 -1.7259 3.87358
upperback 9.67501 -0.137011 1.31965
thorax -10.0687 -0.255721 -0.240466
lowerneck -9.44285 -1.49684 -0.75047
upperneck 19.8333 -0.607828 -6.74063
head 7.64327 -0.945656 -2.14371
rclavicle 6.99722e-014 -3.52346e-014
rhumerus -9.40314 -5.93889 -77.1126
rradius 138.12
rwrist 23.6237
rhand 17.6973 -19.0857
rfingers 7.12502
rthumb 42.3842 -43.5457
lclavicle 6.99722e-014 -3.52346e-014
lhumerus -32.5825 19.2844 75.6781
lradius 138.237
lwrist 4.4202
lhand 0.724323 35.0685
lfingers 7.12502
lthumb 26.284 63.2677
rfemur -96.8976 -23.9372 21.3568
rtibia 107.953
rfoot -41.0141 -22.6748
rtoes -10.3356
lfemur -107.423 8.3464 -39.2392
ltibia 90.8674
lfoot -14.6819 -11.0843
ltoes 9.42705
1266
root 8.38252 12.0682 -3.86588 32.5303 -25.0767 7.74016
lowerback 53.0394 -1.75901 3.92723
upperback 9.71312 -0.141907 1.34079
thorax -10.03 -0.257912 -0.238891
lowerneck -9.43064 -1.51154 -0.749335
upperneck 19.7911 -0.632705 -6.72713
head 7.62632 -0.95475 -2.14066
rclavicle 7.95139e-015 3.47749e-014
rhumerus -9.35622 -5.95218 -77.0856
rradius 138.128
rwrist 23.6413
rhand 17.6634 -19.0855
rfingers 7.12502
rthumb 42.3525 -43.5563
lclavicle 7.95139e-015 3.47749e-014
lhumerus -32.5451 19.3024 75.6837
lradius 138.222
lwrist 4.41603
lhand 0.820499 34.9466
lfingers 7.12502
lthumb 26.376 63.132
rfemur -96.8703 -23.9213 21.1917
rtibia 108.043
rfoot -41.0105 -22.6861
rtoes -10.3547
lfemur -107.486 8.26243 -39.2781
ltibia 90.9315
lfoot -14.66 -11.0903
ltoes 9.4966
1267
root 8.38412 12.0614 -3.86241 32.5337 -24.9863 7.78606
lowerback 53.0986 -1.8032 3.99161
upperback 9.75308 -0.154062 1.35906
thorax -9.98898 -0.26301 -0.242083
lowerneck -9.41945 -1.52888 -0.745384
upperneck 19.7513 -0.661512 -6.71352
head 7.61014 -0.965533 -2.13846
rclavicle 2.06736e-014 6.66674e-014
rhumerus -9.31005 -5.96241 -77.0507
rradius 138.14
rwrist 23.6723
rhand 17.6165 -19.0886
rfingers 7.12502
rthumb 42.3085 -43.5744
lclavicle 2.06736e-014 6.66674e-014
lhumerus -32.4967 19.3011 75.6982
lradius 138.208
lwrist 4.42056
lhand 0.901212 34.8217
lfingers 7.12502
lthumb 26.4533 62.9956
rfemur -96.8357 -23.9285 21.0215
rtibia 108.134
rfoot -41.0015 -22.69
rtoes -10.3739
lfemur -107.537 8.15911 -39.3223
ltibia 90.9973
lfoot -14.6487 -11.0686
ltoes 9.55832
1268
root 8.3862 12.0542 -3.85898 32.5242 -24.8907 7.84455
lowerback 53.1613 -1.85381 4.05983
upperback 9.79354 -0.171228 1.37602
thorax -9.94767 -0.270085 -0.246185
lowerneck -9.40936 -1.54908 -0.737279
upperneck 19.7143 -0.694233 -6.70229
head 7.59492 -0.978133 -2.13816
rclavicle -1.43125e-014 -2.31211e-014
rhumerus -9.26592 -5.96908 -77.0027
rradius 138.154
rwrist 23.7163
rhand 17.549 -19.0966
rfingers 7.12502
rthumb 42.2453 -43.6039
lclavicle -1.43125e-014 -2.31211e-014
lhumerus -32.4354 19.2689 75.733
lradius 138.196
lwrist 4.43604
lhand 0.923406 34.7266
lfingers 7.12502
lthumb 26.4745 62.8973
rfemur -96.796 -23.9549 20.842
rtibia 108.229
rfoot -40.9918 -22.6876
rtoes -10.3888
lfemur -107.572 8.03847 -39.3794
ltibia 91.0608
lfoot -14.6567 -11.0147
ltoes 9.57232
1269
root 8.3882 12.0468 -3.85574 32.5089 -24.7986 7.90568
lowerback 53.2259 -1.90021 4.12028
upperback 9.83392 -0.187366 1.39337
thorax -9.90679 -0.276672 -0.246716
lowerneck -9.40035 -1.56932 -0.725156
upperneck 19.6796 -0.727359 -6.69192
head 7.58063 -0.99079 -2.1389
rclavicle -2.38542e-014 -3.77536e-014
rhumerus -9.22123 -5.96992 -76.9471
rradius 138.169
rwrist 23.7642
rhand 17.4762 -19.1069
rfingers 7.12502
rthumb 42.1771 -43.6373
lclavicle -2.38542e-014 -3.77536e-014
lhumerus -32.3682 19.1972 75.7936
lradius 138.202
lwrist 4.46309
lhand 0.85041 34.7638
lfingers 7.12502
lthumb 26.4047 62.945
rfemur -96.7529 -23.981 20.6585
rtibia 108.324
rfoot -40.9879 -22.6799
rtoes -10.3824
lfemur -107.599 7.91761 -39.4395
ltibia 91.1228
lfoot -14.6811 -10.9484
ltoes 9.56746
1270
root 8.39018 12.0392 -3.85283 32.4938 -24.7097 7.96598
lowerback 53.2877 -1.94323 4.17547
upperback 9.8738 -0.202469 1.4104
thorax -9.86626 -0.28276 -0.245682
lowerneck -9.39144 -1.58877 -0.708291
upperneck 19.647 -0.759811 -6.68323
head 7.56699 -1.003 -2.14097
rclavicle -1.43125e-014 9.29823e-015
rhumerus -9.17441 -5.96669 -76.8852
rradius 138.184
rwrist 23.8072
rhand 17.3972 -19.1182
rfingers 7.12502
rthumb 42.1031 -43.6736
lclavicle -1.43125e-014 9.29823e-015
lhumerus -32.2998 19.1026 75.8677
lradius 138.218
lwrist 4.50702
lhand 0.712769 34.8869
lfingers 7.12502
lthumb 26.2729 63.0877
rfemur -96.7113 -24.0013 20.4755
rtibia 108.417
rfoot -40.9928 -22.6579
rtoes -10.3501
lfemur -107.623 7.79835 -39.495
ltibia 91.1813
lfoot -14.718 -10.8825
ltoes 9.55463
1271
root 8.392 12.0317 -3.85032 32.4818 -24.6316 8.01731
lowerback 53.3469 -1.97695 4.22069
upperback 9.91448 -0.212649 1.42691
thorax -9.82472 -0.286737 -0.242911
lowerneck -9.38171 -1.60618 -0.691415
upperneck 19.6133 -0.790201 -6.67123
head 7.5529 -1.01394 -2.14173
rclavicle 3.18055e-014 1.46945e-014
rhumerus -9.12203 -5.9608 -76.8218
rradius 138.196
rwrist 23.8375
rhand 17.3223 -19.1304
rfingers 7.12502
rthumb 42.0329 -43.7094
lclavicle 3.18055e-014 1.46945e-014
lhumerus -32.2331 18.997 75.9491
lradius 138.241
lwrist 4.56602
lhand 0.528832 35.068
lfingers 7.12502
lthumb 26.0968 63.295
rfemur -96.67 -24.0016 20.297
rtibia 108.507
rfoot -41.0093 -22.6295
rtoes -10.2886
lfemur -107.646 7.6912 -39.5323
ltibia 91.2386
lfoot -14.7616 -10.8302
ltoes 9.56819
1272
root 8.39424 12.0238 -3.84813 32.4794 -24.5464 8.06425
lowerback 53.3914 -2.01718 4.27527
upperback 9.9561 -0.226181 1.44247
thorax -9.78034 -0.292037 -0.244199
lowerneck -9.37258 -1.62231 -0.672844
upperneck 19.5776 -0.819208 -6.65936
head 7.53833 -1.02412 -2.14266
rclavicle 0 -3.65702e-014
rhumerus -9.06193 -5.95391 -76.7589
rradius 138.203
rwrist 23.8518
rhand 17.2478 -19.1412
rfingers 7.12502
rthumb 41.9631 -43.7436
lclavicle 0 -3.65702e-014
lhumerus -32.17 18.9066 76.0222
lradius 138.259
lwrist 4.62556
lhand 0.384529 35.2276
lfingers 7.12502
lthumb 25.9586 63.4749
rfemur -96.6428 -24.0053 20.1359
rtibia 108.595
rfoot -41.0329 -22.5998
rtoes -10.2065
lfemur -107.676 7.57389 -39.5492
ltibia 91.294
lfoot -14.807 -10.7847
ltoes 9.56208
1273
root 8.39692 12.0154 -3.8463 32.4902 -24.4577 8.10788
lowerback 53.414 -2.06198 4.3375
upperback 10.0004 -0.24239 1.45625
thorax -9.73043 -0.298258 -0.250138
lowerneck -9.36938 -1.64234 -0.659003
upperneck 19.5438 -0.85365 -6.64085
head 7.52535 -1.03674 -2.14121
rclavicle 6.36111e-015 -1.2188e-014
rhumerus -8.9924 -5.95217 -76.6988
rradius 138.203
rwrist 23.8507
rhand 17.1831 -19.1447
rfingers 7.12502
rthumb 41.9024 -43.7674
lclavicle 6.36111e-015 -1.2188e-014
lhumerus -32.1119 18.8333 76.0825
lradius 138.272
lwrist 4.68783
lhand 0.284138 35.3591
lfingers 7.12502
lthumb 25.8625 63.6204
rfemur -96.6385 -24.0116 19.9943
rtibia 108.683
rfoot -41.0626 -22.5773
rtoes -10.1123
lfemur -107.723 7.44939 -39.5522
ltibia 91.3507
lfoot -14.8409 -10.7584
ltoes 9.5913
